<svg width="25" height="25" viewBox="0 0 25 25" fill="none" xmlns="http://www.w3.org/2000/svg">
<path d="M20.7429 9.29053H11.7429C10.6384 9.29053 9.74292 10.186 9.74292 11.2905V20.2905C9.74292 21.3951 10.6384 22.2905 11.7429 22.2905H20.7429C21.8475 22.2905 22.7429 21.3951 22.7429 20.2905V11.2905C22.7429 10.186 21.8475 9.29053 20.7429 9.29053Z" stroke="#4219D0" stroke-width="2" stroke-linecap="round" stroke-linejoin="round"/>
<path d="M5.74292 15.2905H4.74292C4.21249 15.2905 3.70378 15.0798 3.32871 14.7047C2.95363 14.3297 2.74292 13.821 2.74292 13.2905V4.29053C2.74292 3.76009 2.95363 3.25139 3.32871 2.87631C3.70378 2.50124 4.21249 2.29053 4.74292 2.29053H13.7429C14.2734 2.29053 14.7821 2.50124 15.1571 2.87631C15.5322 3.25139 15.7429 3.76009 15.7429 4.29053V5.29053" stroke="#4219D0" stroke-width="2" stroke-linecap="round" stroke-linejoin="round"/>
</svg>
