<svg width="25" height="25" viewBox="0 0 25 25" fill="none" xmlns="http://www.w3.org/2000/svg">
<path d="M17.3965 3.36163C17.6592 3.09899 17.971 2.89065 18.3142 2.7485C18.6573 2.60636 19.0251 2.5332 19.3965 2.5332C19.768 2.5332 20.1358 2.60636 20.4789 2.7485C20.8221 2.89065 21.1339 3.09899 21.3965 3.36163C21.6592 3.62427 21.8675 3.93608 22.0097 4.27924C22.1518 4.6224 22.225 4.9902 22.225 5.36163C22.225 5.73306 22.1518 6.10086 22.0097 6.44402C21.8675 6.78718 21.6592 7.09899 21.3965 7.36163L7.89655 20.8616L2.39655 22.3616L3.89655 16.8616L17.3965 3.36163Z" fill="white" stroke="white" stroke-width="2" stroke-linecap="round" stroke-linejoin="round"/>
</svg>
