<svg width="24" height="24" viewBox="0 0 24 24" fill="none" xmlns="http://www.w3.org/2000/svg">
<path d="M12.4484 1.77869C12.3641 1.60804 12.1903 1.5 12 1.5C11.8097 1.5 11.6359 1.60804 11.5516 1.77869L8.57787 7.80323L1.92769 8.77526C1.73941 8.80278 1.58307 8.93478 1.52438 9.11578C1.46569 9.29679 1.51482 9.49541 1.65113 9.62818L6.46274 14.3147L5.3272 20.9355C5.29502 21.1231 5.37214 21.3127 5.52613 21.4245C5.68012 21.5364 5.88427 21.5511 6.05273 21.4625L12 18.3349L17.9473 21.4625C18.1157 21.5511 18.3199 21.5364 18.4739 21.4245C18.6279 21.3127 18.705 21.1231 18.6728 20.9355L17.5373 14.3147L22.3489 9.62818C22.4852 9.49541 22.5343 9.29679 22.4756 9.11578C22.4169 8.93478 22.2606 8.80278 22.0723 8.77526L15.4221 7.80323L12.4484 1.77869Z" fill="#FFC700" stroke="#FFC700" stroke-linecap="round" stroke-linejoin="round"/>
</svg>
